<svg xmlns="http://www.w3.org/2000/svg" width="800" height="800" viewBox="0 0 32 32"><path d="M20.098 8.901a2.002 2.002 0 1 0-.73-2.742l-.005.01a2.002 2.002 0 0 0 .725 2.726zM16 10.152a5.85 5.85 0 0 1 5.822 5.307l.002.023 2.855-.043a8.67 8.67 0 0 0-2.585-5.642l-.001-.001a2.806 2.806 0 0 1-3.765-2.165l-.002-.016a8.7 8.7 0 0 0-2.324-.312h-.013c-1.4 0-2.722.332-3.892.922l.05-.023 1.391 2.493a5.74 5.74 0 0 1 2.458-.544h.006zM5.803 13.998zA2.002 2.002 0 1 0 7.804 16a2.003 2.003 0 0 0-2.001-2.002M10.152 16zc0-1.971.975-3.714 2.469-4.773l.018-.012-1.462-2.451a8.74 8.74 0 0 0-3.586 4.981l-.014.061a2.77 2.77 0 0 1 1.037 2.163v.011-.001a2.8 2.8 0 0 1-1.032 2.169l-.005.004a8.75 8.75 0 0 0 3.569 5.021l.031.02 1.462-2.456a5.73 5.73 0 0 1-2.487-4.724v-.016.001zM16 21.848h-.005c-.892 0-1.738-.2-2.493-.559l.035.015-1.391 2.493a8.54 8.54 0 0 0 3.846.901c.83 0 1.633-.117 2.393-.335l-.061.015a2.815 2.815 0 0 1 3.787-2.172l-.019-.007a8.64 8.64 0 0 0 2.585-5.616l.001-.026-2.855-.041c-.274 2.999-2.776 5.331-5.823 5.331zm4.098 1.25a2.001 2.001 0 1 0 2.728.72l.005.009a2.004 2.004 0 0 0-2.743-.725l.009-.005zM16 1.004c8.282 0 14.996 6.714 14.996 14.996S24.282 30.996 16 30.996 1.004 24.282 1.004 16C1.008 7.72 7.719 1.008 15.999 1.004z"/></svg>
