<svg xmlns="http://www.w3.org/2000/svg" width="759.475" height="759.65" viewBox="0 0 30.379 30.386"><path d="M15.188.001c-1.354 3.313-2.167 5.484-3.672 8.703.922.979 2.057 2.12 3.896 3.406-1.979-.818-3.328-1.635-4.339-2.484C9.146 13.652 6.125 19.376 0 30.386c4.818-2.781 8.547-4.495 12.026-5.151a9 9 0 0 1-.229-2.063l.005-.151c.078-3.089 1.682-5.458 3.583-5.297s3.38 2.792 3.307 5.88a9 9 0 0 1-.198 1.656c3.443.672 7.135 2.38 11.885 5.125-.938-1.724-1.771-3.281-2.573-4.76-1.255-.974-2.568-2.245-5.24-3.62 1.839.479 3.151 1.031 4.177 1.646C18.623 8.542 17.972 6.531 15.186 0Z"/></svg>